<svg xmlns="http://www.w3.org/2000/svg" viewBox="0 0 380 460" width="380" height="460">
  <defs>
    <linearGradient id="bgGrad" x1="0%" y1="0%" x2="100%" y2="100%">
      <stop offset="0%" style="stop-color:#D8CCF2;stop-opacity:1" />
      <stop offset="100%" style="stop-color:#F1ECFA;stop-opacity:1" />
    </linearGradient>
    <linearGradient id="accentGrad" x1="0%" y1="0%" x2="100%" y2="100%">
      <stop offset="0%" style="stop-color:#B9A7E8;stop-opacity:0.6" />
      <stop offset="100%" style="stop-color:#E9A783;stop-opacity:0.4" />
    </linearGradient>
  </defs>
  
  <!-- Background -->
  <rect width="380" height="460" rx="40" fill="url(#bgGrad)"/>
  
  <!-- Subtle decorative elements -->
  <circle cx="60" cy="80" r="30" fill="url(#accentGrad)" opacity="0.3"/>
  <circle cx="320" cy="120" r="20" fill="url(#accentGrad)" opacity="0.2"/>
  <circle cx="300" cy="380" r="40" fill="url(#accentGrad)" opacity="0.2"/>
  
  <!-- Star accents -->
  <path d="M50 400l3 6 6 3-6 3-3 6-3-6-6-3 6-3z" fill="#D8A36D" opacity="0.5"/>
  <path d="M330 60l3 6 6 3-6 3-3 6-3-6-6-3 6-3z" fill="#E9A783" opacity="0.5"/>
  <path d="M100 50l2 4 4 2-4 2-2 4-2-4-4-2 4-2z" fill="#B9A7E8" opacity="0.4"/>
  
  <!-- Person silhouette -->
  <circle cx="190" cy="160" r="55" fill="#4A2855" opacity="0.2"/>
  <ellipse cx="190" cy="330" rx="85" ry="100" fill="#4A2855" opacity="0.15"/>
  
  <!-- Placeholder text -->
  <text x="190" y="240" text-anchor="middle" font-family="Georgia, serif" font-size="14" fill="#4A2855" opacity="0.5">Replace with</text>
  <text x="190" y="260" text-anchor="middle" font-family="Georgia, serif" font-size="14" fill="#4A2855" opacity="0.5">Pavi's photo</text>
  
  <!-- Moon accent -->
  <path d="M310 300 A25 25 0 1 1 310 350 A18 18 0 1 0 310 300Z" fill="#D8A36D" opacity="0.3"/>
</svg>
